STARTFONT 2.1
FONT -XSYMB-XSymb1_sub-Medium-R-Normal--24-240-75-75-P-183-xsymb-xsymb1
SIZE 24 75 75
FONTBOUNDINGBOX 34 24 0 -11
STARTPROPERTIES 25
FONT_NAME "XSymb1Medium"
FONT_ASCENT 17
FONT_DESCENT 7
QUAD_WIDTH 24
X_HEIGHT 8
CAP_HEIGHT 10
FONTNAME_REGISTRY ""
FAMILY_NAME "XSymb1_sub"
FOUNDRY "XSYMB"
WEIGHT_NAME "Medium"
SETWIDTH_NAME "Normal"
SLANT "R"
ADD_STYLE_NAME ""
PIXEL_SIZE 24
POINT_SIZE 240
RESOLUTION_X 75
RESOLUTION_Y 75
RESOLUTION 75
SPACING "P"
AVERAGE_WIDTH 183
CHARSET_REGISTRY "xsymb"
CHARSET_ENCODING "xsymb1"
CHARSET_COLLECTIONS "ASCII ISOLatin1Encoding FontSpecific"
FULL_NAME "XSymb1 Medium"
COPYRIGHT """1997-2001 Free Software Foundation, Inc."""
ENDPROPERTIES
CHARS 169
STARTCHAR verticaldots
ENCODING 33
SWIDTH 500 0
DWIDTH 10 0
BBX 2 20 4 -7
BITMAP
C0
C0
C0
C0
00
00
00
00
C0
C0
C0
C0
00
00
00
00
C0
C0
C0
C0
ENDCHAR
STARTCHAR backslash1
ENCODING 34
SWIDTH 500 0
DWIDTH 12 0
BBX 10 22 0 -9
BITMAP
C000
C000
E000
6000
7000
3000
3800
1800
1C00
0C00
0E00
0600
0700
0300
0380
0180
01C0
00C0
0000
0000
3FC0
3FC0
ENDCHAR
STARTCHAR dagger
ENCODING 35
SWIDTH 500 0
DWIDTH 14 0
BBX 10 22 2 -9
BITMAP
3F00
3F00
3F00
3F00
0C00
0C00
FFC0
FFC0
0C00
0C00
3F00
3F00
3F00
3F00
3F00
3F00
3F00
3F00
0C00
0C00
0C00
0C00
ENDCHAR
STARTCHAR percent2
ENCODING 38
SWIDTH 1666 0
DWIDTH 20 0
BBX 18 18 0 -5
BITMAP
3FC0C0
7FE1C0
E73B80
C31F00
C30E00
E71C00
7E3800
3C7000
00E000
01E000
01CF00
039F80
0339C0
0730C0
0E30C0
1C39C0
381F80
300F00
ENDCHAR
STARTCHAR guilsinglright
ENCODING 39
SWIDTH 500 0
DWIDTH 10 0
BBX 6 10 2 -3
BITMAP
C0
E0
70
38
1C
1C
38
70
E0
C0
ENDCHAR
STARTCHAR NG
ENCODING 40
SWIDTH 500 0
DWIDTH 18 0
BBX 14 18 2 -5
BITMAP
CFC0
DFE0
F870
F038
E01C
C00C
C00C
C00C
C00C
C00C
C00C
C00C
C00C
C00C
C30C
C31C
C3F8
C3F0
ENDCHAR
STARTCHAR OE
ENCODING 41
SWIDTH 2000 0
DWIDTH 24 0
BBX 20 18 2 -5
BITMAP
0FFFF0
1FFFF0
383000
703000
E03000
C03000
C03000
C03000
C03FF0
C03FF0
C03000
C03000
C03000
E03000
703000
383000
1FFFF0
0FFFF0
ENDCHAR
STARTCHAR dotlessj
ENCODING 42
SWIDTH 500 0
DWIDTH 10 0
BBX 8 20 0 -11
BITMAP
03
03
03
03
03
03
03
03
03
03
03
03
03
03
03
03
03
03
FE
FC
ENDCHAR
STARTCHAR ng
ENCODING 43
SWIDTH 500 0
DWIDTH 14 0
BBX 10 20 2 -11
BITMAP
CF00
DF80
F9C0
F0C0
E0C0
C0C0
C0C0
C0C0
C0C0
C0C0
C0C0
C0C0
C0C0
C0C0
00C0
00C0
0CC0
0DC0
0F80
0F00
ENDCHAR
STARTCHAR oe
ENCODING 44
SWIDTH 1888 0
DWIDTH 22 0
BBX 18 14 2 -5
BITMAP
3F3F00
7F7F80
E0E1C0
C0C0C0
C0C0C0
C0C0C0
C0FFC0
C0FFC0
C0C000
C0C000
C0C0C0
E0E1C0
7F7F80
3F3F00
ENDCHAR
STARTCHAR sharp
ENCODING 45
SWIDTH 500 0
DWIDTH 14 0
BBX 10 20 2 -7
BITMAP
0300
0340
33C0
37C0
3FC0
3F80
7F00
FB00
F300
F340
B3C0
33C0
37C0
3F80
7F00
FF00
FB00
F300
B000
3000
ENDCHAR
STARTCHAR ceilingleft
ENCODING 46
SWIDTH 960 0
DWIDTH 12 0
BBX 8 22 2 -9
BITMAP
FF
FF
FF
FF
C0
C0
C0
C0
C0
C0
C0
C0
C0
C0
C0
C0
C0
C0
C0
C0
C0
C0
ENDCHAR
STARTCHAR ceilingright
ENCODING 47
SWIDTH 960 0
DWIDTH 12 0
BBX 8 22 2 -9
BITMAP
FF
FF
FF
FF
03
03
03
03
03
03
03
03
03
03
03
03
03
03
03
03
03
03
ENDCHAR
STARTCHAR zero1
ENCODING 48
SWIDTH 1112 0
DWIDTH 16 0
BBX 14 18 2 -5
BITMAP
0FE0
1FF0
3E38
3C3C
3C1C
781C
781C
701C
F01C
E018
E038
E038
E030
E070
F0F0
F0E0
7FE0
3FC0
ENDCHAR
STARTCHAR one1
ENCODING 49
SWIDTH 1112 0
DWIDTH 14 0
BBX 10 18 4 -5
BITMAP
01C0
07C0
FFC0
FF80
0700
0E00
1E00
3C00
3C00
7C00
7800
7800
7800
7800
F000
F000
F000
F000
ENDCHAR
STARTCHAR two1
ENCODING 50
SWIDTH 1112 0
DWIDTH 16 0
BBX 14 18 2 -5
BITMAP
0FF0
1FF8
3C3C
381C
003C
007C
00F8
01F0
03E0
07C0
0F80
1F00
3E00
7C00
F800
F000
FFC0
FFC0
ENDCHAR
STARTCHAR three1
ENCODING 51
SWIDTH 1112 0
DWIDTH 16 0
BBX 14 18 2 -5
BITMAP
0FF0
1FF8
3E7C
3C3C
003C
003C
003C
007C
0FF8
0FF0
00F0
00F0
00F0
00F0
F0F0
F9F0
7FE0
3FC0
ENDCHAR
STARTCHAR four1
ENCODING 52
SWIDTH 1112 0
DWIDTH 16 0
BBX 14 18 2 -5
BITMAP
003C
007C
00FC
01FC
03BC
073C
0E3C
1C38
3878
70F0
E0F0
E0F0
FFFC
FFFC
03C0
03C0
03C0
03C0
ENDCHAR
STARTCHAR five1
ENCODING 53
SWIDTH 1112 0
DWIDTH 16 0
BBX 14 18 2 -5
BITMAP
03FC
07FC
0F00
1E00
3C00
3C00
3FC0
3FE0
00F0
00F0
00F0
00F0
00F0
00F0
E1E0
F3C0
7F80
3F00
ENDCHAR
STARTCHAR six1
ENCODING 54
SWIDTH 1112 0
DWIDTH 16 0
BBX 14 18 2 -5
BITMAP
03F0
07F8
0F3C
1E1C
3C00
3C00
3FC0
7FE0
FCF0
F8F0
F070
F070
F030
F030
F070
F8F0
7FE0
3FC0
ENDCHAR
STARTCHAR seven1
ENCODING 55
SWIDTH 1112 0
DWIDTH 16 0
BBX 14 18 2 -5
BITMAP
3FFC
3FFC
003C
003C
0078
00F0
00F0
01E0
01C0
03C0
0780
0F00
0F00
1E00
3C00
7800
F000
E000
ENDCHAR
STARTCHAR eight1
ENCODING 56
SWIDTH 1112 0
DWIDTH 16 0
BBX 14 18 2 -5
BITMAP
0FF0
1FF8
3C3C
3C1C
3C1C
3C3C
1C78
0CF0
3FE0
7FC0
F0E0
F070
F070
F0F0
F1F0
F3F0
7FE0
3FC0
ENDCHAR
STARTCHAR nine1
ENCODING 57
SWIDTH 1112 0
DWIDTH 16 0
BBX 14 18 2 -5
BITMAP
0FF0
1FF8
3C7C
383C
303C
303C
383C
383C
3C7C
3CFC
1FF8
0FF0
00F0
00E0
E1C0
F3C0
7F80
3F00
ENDCHAR
STARTCHAR star
ENCODING 58
SWIDTH 500 0
DWIDTH 14 0
BBX 10 10 2 -3
BITMAP
0C00
0C00
CCC0
CCC0
EDC0
7F80
3F00
3F00
F3C0
E1C0
ENDCHAR
STARTCHAR lozenge1
ENCODING 59
SWIDTH 500 0
DWIDTH 18 0
BBX 18 18 0 -7
BITMAP
00C000
01E000
03F000
07F800
0F3C00
1E1E00
3C0F00
780780
F003C0
F003C0
780780
3C0F00
1E1E00
0F3C00
07F800
03F000
01E000
00C000
ENDCHAR
STARTCHAR braceleft2
ENCODING 60
SWIDTH 960 0
DWIDTH 16 0
BBX 12 22 2 -9
BITMAP
01F0
03F0
0780
0F00
0F00
0F00
0F00
0E00
3C10
7830
F070
F070
7830
3C10
0E00
0F00
0F00
0F00
0F00
0780
03F0
01F0
ENDCHAR
STARTCHAR circleslash
ENCODING 61
SWIDTH 1536 0
DWIDTH 18 0
BBX 14 14 2 -5
BITMAP
0FC0
1FE0
3030
6078
C0EC
C1CC
C38C
C70C
CE0C
DC0C
7818
3030
1FE0
0FC0
ENDCHAR
STARTCHAR braceright2
ENCODING 62
SWIDTH 960 0
DWIDTH 16 0
BBX 12 22 2 -9
BITMAP
F800
FC00
1E00
0F00
0F00
0F00
0F00
0700
83C0
C1E0
E0F0
E0F0
C1E0
83C0
0700
0F00
0F00
0F00
0F00
1E00
FC00
F800
ENDCHAR
STARTCHAR triangle1
ENCODING 63
SWIDTH 1426 0
DWIDTH 16 0
BBX 12 12 2 -3
BITMAP
0F00
0F00
1980
30C0
70C0
6060
C030
C030
C030
C030
FFF0
FFF0
ENDCHAR
STARTCHAR smalltriangleright
ENCODING 64
SWIDTH 1426 0
DWIDTH 16 0
BBX 12 12 2 -3
BITMAP
FC00
FE00
C380
C1C0
C070
C030
C030
C070
C1C0
C380
FE00
FC00
ENDCHAR
STARTCHAR triangleleft
ENCODING 65
SWIDTH 1426 0
DWIDTH 20 0
BBX 16 14 2 -5
BITMAP
003F
007F
01F3
07C3
1F03
3C03
F003
F003
3C03
1F03
07C3
01F3
007F
003F
ENDCHAR
STARTCHAR triangle
ENCODING 66
SWIDTH 1426 0
DWIDTH 18 0
BBX 14 18 2 -5
BITMAP
0300
0300
0300
0780
0780
0CC0
0CC0
0CC0
1860
1860
3030
3030
6018
6018
C00C
C00C
FFFC
FFFC
ENDCHAR
STARTCHAR triangleright
ENCODING 67
SWIDTH 1426 0
DWIDTH 20 0
BBX 16 14 2 -3
BITMAP
FC00
FF00
CFC0
C3F0
C0F8
C03C
C00F
C00F
C03C
C0F8
C3F0
CFC0
FF00
FC00
ENDCHAR
STARTCHAR trianglelefteq
ENCODING 68
SWIDTH 1426 0
DWIDTH 22 0
BBX 16 18 2 -7
BITMAP
000F
003F
00F3
03C3
0F03
3C03
E003
E003
3C03
0F03
03C3
00F3
003F
000F
0000
0000
3FFF
3FFF
ENDCHAR
STARTCHAR trianglerighteq
ENCODING 69
SWIDTH 1426 0
DWIDTH 20 0
BBX 16 18 2 -7
BITMAP
F000
FC00
CF00
C3C0
C0F0
C03C
C007
C007
C03C
C0F0
C3C0
CF00
FC00
F000
0000
0000
FFFC
FFFC
ENDCHAR
STARTCHAR dotpunct
ENCODING 70
SWIDTH 500 0
DWIDTH 12 0
BBX 8 14 2 -9
BITMAP
30
30
30
30
00
00
00
00
00
00
00
00
FF
FF
ENDCHAR
STARTCHAR dotequal
ENCODING 71
SWIDTH 1098 0
DWIDTH 18 0
BBX 14 12 2 -3
BITMAP
0300
0300
0300
0300
0000
0000
FFFC
FFFC
0000
0000
FFFC
FFFC
ENDCHAR
STARTCHAR wrong
ENCODING 72
SWIDTH 500 0
DWIDTH 10 0
BBX 6 16 2 -5
BITMAP
F0
F8
1C
0C
0C
1C
18
30
30
60
E0
C0
C0
E0
7C
3C
ENDCHAR
STARTCHAR natural
ENCODING 73
SWIDTH 500 0
DWIDTH 12 0
BBX 8 22 2 -9
BITMAP
C0
C0
C0
C0
C7
CF
DF
FB
F3
E3
C3
C3
C7
CF
DF
FB
F3
E3
03
03
03
03
ENDCHAR
STARTCHAR flat
ENCODING 74
SWIDTH 500 0
DWIDTH 12 0
BBX 8 18 2 -5
BITMAP
C0
C0
C0
C0
C0
C0
FF
FF
C3
C3
C3
C7
CF
DE
FC
F8
F0
E0
ENDCHAR
STARTCHAR epsilon1
ENCODING 75
SWIDTH 878 0
DWIDTH 12 0
BBX 10 12 2 -5
BITMAP
3F00
7F80
E0C0
C040
7C00
3C00
4000
C000
E040
F0C0
7F80
3F00
ENDCHAR
STARTCHAR hbar
ENCODING 76
SWIDTH 500 0
DWIDTH 14 0
BBX 12 18 0 -5
BITMAP
3000
3000
FFC0
FFC0
3000
3000
33C0
37E0
3E70
3C30
3830
3030
3030
3030
3030
3030
3030
3030
ENDCHAR
STARTCHAR imath
ENCODING 77
SWIDTH 658 0
DWIDTH 10 0
BBX 8 12 0 -5
BITMAP
3E
7F
EF
C7
07
0E
1C
3C
38
38
3F
1F
ENDCHAR
STARTCHAR kappa1
ENCODING 78
SWIDTH 658 0
DWIDTH 16 0
BBX 12 12 2 -5
BITMAP
F830
FC70
CCF0
8DE0
0FC0
0F80
1F00
3F00
7B10
F330
E3F0
C1F0
ENDCHAR
STARTCHAR jmath
ENCODING 79
SWIDTH 658 0
DWIDTH 12 0
BBX 10 18 0 -11
BITMAP
0F80
1FC0
3BC0
33C0
03C0
03C0
03C0
0380
0300
0300
0700
0F00
CF00
CF00
FF00
FF00
7E00
3C00
ENDCHAR
STARTCHAR ell
ENCODING 80
SWIDTH 500 0
DWIDTH 12 0
BBX 10 18 0 -5
BITMAP
0F00
1F80
39C0
30C0
30C0
30C0
30C0
30C0
30C0
31C0
3380
3700
FE00
FC00
30C0
31C0
1F80
0F00
ENDCHAR
STARTCHAR amalg
ENCODING 81
SWIDTH 1536 0
DWIDTH 18 0
BBX 16 18 0 -5
BITMAP
FC3F
FC3F
300C
300C
300C
300C
300C
300C
300C
300C
300C
300C
300C
300C
300C
300C
FFFF
FFFF
ENDCHAR
STARTCHAR rho1
ENCODING 82
SWIDTH 1098 0
DWIDTH 14 0
BBX 10 18 2 -11
BITMAP
3F00
7F80
E1C0
C0C0
C0C0
C0C0
C0C0
E0C0
F0C0
F9C0
DF80
CF00
C000
C000
C000
E000
7F00
3F00
ENDCHAR
STARTCHAR top
ENCODING 83
SWIDTH 1316 0
DWIDTH 16 0
BBX 14 16 0 -7
BITMAP
FFFC
FFFC
0300
0300
0300
0300
0300
0300
0300
0300
0300
0300
0300
0300
0300
0300
ENDCHAR
STARTCHAR Mho
ENCODING 84
SWIDTH 1536 0
DWIDTH 22 0
BBX 20 18 0 -5
BITMAP
FF0FF0
FF0FF0
C30C30
C70E30
0E0700
1C0380
3801C0
3000C0
3000C0
3000C0
3000C0
3801C0
180180
0C0300
0E0700
070E00
07FE00
03FC00
ENDCHAR
STARTCHAR floorleft
ENCODING 85
SWIDTH 960 0
DWIDTH 14 0
BBX 10 22 2 -9
BITMAP
C000
C000
C000
C000
C000
C000
C000
C000
C000
C000
C000
C000
C000
C000
C000
C000
C000
C000
FFC0
FFC0
FFC0
FFC0
ENDCHAR
STARTCHAR floorright
ENCODING 86
SWIDTH 960 0
DWIDTH 14 0
BBX 10 22 2 -9
BITMAP
00C0
00C0
00C0
00C0
00C0
00C0
00C0
00C0
00C0
00C0
00C0
00C0
00C0
00C0
00C0
00C0
00C0
00C0
FFC0
FFC0
FFC0
FFC0
ENDCHAR
STARTCHAR perpendicular1
ENCODING 87
SWIDTH 1316 0
DWIDTH 14 0
BBX 10 12 2 -3
BITMAP
0C00
0C00
0C00
0C00
0C00
0C00
0C00
0C00
0C00
0C00
FFC0
FFC0
ENDCHAR
STARTCHAR box
ENCODING 88
SWIDTH 500 0
DWIDTH 18 0
BBX 14 16 2 -5
BITMAP
FFFC
FFFC
C00C
C00C
C00C
C00C
C00C
C00C
C00C
C00C
C00C
C00C
C00C
C00C
FFFC
FFFC
ENDCHAR
STARTCHAR asciicircum1
ENCODING 89
SWIDTH 400 0
DWIDTH 14 0
BBX 10 22 2 -9
BITMAP
0C00
0C00
1E00
3F00
7380
E1C0
C0C0
C0C0
0000
0000
0000
0000
0000
0000
0000
0000
0000
0000
0000
0000
3F00
3F00
ENDCHAR
STARTCHAR asciitilde1
ENCODING 90
SWIDTH 400 0
DWIDTH 16 0
BBX 12 22 2 -9
BITMAP
3830
7C30
EE30
C770
C3E0
C1C0
0000
0000
0000
0000
0000
0000
0000
0000
0000
0000
0000
0000
0000
0000
3FC0
3FC0
ENDCHAR
STARTCHAR leadsto
ENCODING 91
SWIDTH 1974 0
DWIDTH 26 0
BBX 22 10 2 -3
BITMAP
0000C0
0000E0
300C70
381C38
FC3FFC
FE7FFC
07E038
03C070
0000E0
0000C0
ENDCHAR
STARTCHAR quotedbl1
ENCODING 92
SWIDTH 710 0
DWIDTH 10 0
BBX 6 6 2 7
BITMAP
CC
CC
CC
CC
CC
CC
ENDCHAR
STARTCHAR longarrowleft
ENCODING 93
SWIDTH 1974 0
DWIDTH 38 0
BBX 34 10 2 -3
BITMAP
0C00000000
0C00000000
3000000000
3000000000
FFFFFFFFC0
FFFFFFFFC0
3000000000
3000000000
0C00000000
0C00000000
ENDCHAR
STARTCHAR arrowupdown
ENCODING 94
SWIDTH 1206 0
DWIDTH 14 0
BBX 10 24 2 -9
BITMAP
0C00
1E00
3F00
7F80
EDC0
CCC0
0C00
0C00
0C00
0C00
0C00
0C00
0C00
0C00
0C00
0C00
0C00
0C00
CCC0
EDC0
7F80
3F00
1E00
0C00
ENDCHAR
STARTCHAR longarrowright
ENCODING 95
SWIDTH 1974 0
DWIDTH 38 0
BBX 34 10 2 -3
BITMAP
0000000C00
0000000E00
0000000700
0000000380
FFFFFFFFC0
FFFFFFFFC0
0000000380
0000000700
0000000E00
0000000C00
ENDCHAR
STARTCHAR longmapsto
ENCODING 96
SWIDTH 1974 0
DWIDTH 38 0
BBX 34 10 2 -3
BITMAP
C000000C00
C000000E00
C000000700
C000000380
FFFFFFFFC0
FFFFFFFFC0
C000000380
C000000700
C000000E00
C000000C00
ENDCHAR
STARTCHAR longarrowdblboth
ENCODING 97
SWIDTH 1974 0
DWIDTH 38 0
BBX 34 10 2 -3
BITMAP
0C00000C00
1C00000E00
3FFFFFFF00
7FFFFFFF80
F0000003C0
F0000003C0
7FFFFFFF80
3FFFFFFF00
1C00000E00
0C00000C00
ENDCHAR
STARTCHAR longarrowdblleft
ENCODING 98
SWIDTH 1974 0
DWIDTH 38 0
BBX 34 10 2 -3
BITMAP
0C00000000
1C00000000
3FFFFFFFC0
7FFFFFFFC0
F000000000
F000000000
7FFFFFFFC0
3FFFFFFFC0
1C00000000
0C00000000
ENDCHAR
STARTCHAR arrowdblupdown
ENCODING 99
SWIDTH 1206 0
DWIDTH 14 0
BBX 10 24 2 -9
BITMAP
0C00
0C00
3F00
3F00
F3C0
F3C0
3300
3300
3300
3300
3300
3300
3300
3300
3300
3300
3300
3300
F3C0
F3C0
3F00
3F00
0C00
0C00
ENDCHAR
STARTCHAR longarrowdblright
ENCODING 100
SWIDTH 1974 0
DWIDTH 38 0
BBX 34 10 2 -3
BITMAP
0000000C00
0000000E00
FFFFFFFF00
FFFFFFFF80
00000003C0
00000003C0
FFFFFFFF80
FFFFFFFF00
0000000E00
0000000C00
ENDCHAR
STARTCHAR mapsto
ENCODING 101
SWIDTH 1974 0
DWIDTH 26 0
BBX 22 10 2 -3
BITMAP
C000C0
C000E0
C00070
C00038
FFFFFC
FFFFFC
C00038
C00070
C000E0
C000C0
ENDCHAR
STARTCHAR iff
ENCODING 102
SWIDTH 1974 0
DWIDTH 42 0
BBX 34 14 4 -3
BITMAP
0033CF0000
0033CF0000
00030C0000
00030C0000
0C33CF0C00
1C33CF0E00
3FB30C7F00
7FB30C7F80
F0000003C0
F0000003C0
7FFFFFFF80
3FFFFFFF00
1C00000E00
0C00000C00
ENDCHAR
STARTCHAR hookleftarrow
ENCODING 103
SWIDTH 988 0
DWIDTH 26 0
BBX 22 10 2 -3
BITMAP
0C0030
1C0038
38001C
70000C
FFFFFC
FFFFFC
700000
380000
1C0000
0C0000
ENDCHAR
STARTCHAR hookrightarrow
ENCODING 104
SWIDTH 988 0
DWIDTH 26 0
BBX 22 10 2 -3
BITMAP
3000C0
7000E0
E00070
C00038
FFFFFC
7FFFFC
000038
000070
0000E0
0000C0
ENDCHAR
STARTCHAR arrownortheast
ENCODING 105
SWIDTH 988 0
DWIDTH 26 0
BBX 22 22 2 -9
BITMAP
0003FC
0003FC
00003C
00007C
0000EC
0001CC
00038C
00070C
000E00
001C00
003800
007000
00E000
01C000
038000
070000
0E0000
1C0000
380000
700000
E00000
C00000
ENDCHAR
STARTCHAR arrowsoutheast
ENCODING 106
SWIDTH 988 0
DWIDTH 26 0
BBX 22 22 2 -9
BITMAP
C00000
E00000
700000
380000
1C0000
0E0000
070000
038000
01C000
00E000
007000
003800
001C00
000E00
00070C
00038C
0001CC
0000EC
00007C
00003C
0003FC
0003FC
ENDCHAR
STARTCHAR arrownorthwest
ENCODING 107
SWIDTH 988 0
DWIDTH 26 0
BBX 22 22 2 -9
BITMAP
FF0000
FF0000
F00000
F80000
DC0000
CE0000
C70000
C38000
01C000
00E000
007000
003800
001C00
000E00
000700
000380
0001C0
0000E0
000070
000038
00001C
00000C
ENDCHAR
STARTCHAR arrowsouthwest
ENCODING 108
SWIDTH 988 0
DWIDTH 26 0
BBX 22 22 2 -9
BITMAP
00000C
00001C
000038
000070
0000E0
0001C0
000380
000700
000E00
001C00
003800
007000
00E000
01C000
C38000
C70000
CE0000
DC0000
F80000
F00000
FF0000
FF0000
ENDCHAR
STARTCHAR rightleftharpoons
ENCODING 109
SWIDTH 988 0
DWIDTH 26 0
BBX 24 14 1 -5
BITMAP
000060
000070
000038
00001C
7FFFFE
7FFFFF
000000
000000
FFFFFE
7FFFFE
380000
1C0000
0E0000
060000
ENDCHAR
STARTCHAR leftharpoondown
ENCODING 110
SWIDTH 988 0
DWIDTH 26 0
BBX 23 6 1 -3
BITMAP
FFFFFE
7FFFFE
380000
1C0000
0E0000
060000
ENDCHAR
STARTCHAR rightharpoondown
ENCODING 111
SWIDTH 988 0
DWIDTH 26 0
BBX 23 6 2 -3
BITMAP
FFFFFE
FFFFFC
000038
000070
0000E0
0000C0
ENDCHAR
STARTCHAR leftharpoonup
ENCODING 112
SWIDTH 988 0
DWIDTH 26 0
BBX 23 6 1 -1
BITMAP
060000
0E0000
1C0000
380000
7FFFFE
FFFFFE
ENDCHAR
STARTCHAR rightharpoonup
ENCODING 113
SWIDTH 988 0
DWIDTH 26 0
BBX 23 6 2 1
BITMAP
0000C0
0000E0
000070
000038
FFFFFC
FFFFFE
ENDCHAR
STARTCHAR bardbl
ENCODING 114
SWIDTH 960 0
DWIDTH 12 0
BBX 8 22 2 -9
BITMAP
C3
C3
C3
C3
C3
C3
C3
C3
C3
C3
C3
C3
C3
C3
C3
C3
C3
C3
C3
C3
C3
C3
ENDCHAR
STARTCHAR shortbardbl
ENCODING 115
SWIDTH 960 0
DWIDTH 10 0
BBX 6 14 2 -5
BITMAP
CC
CC
CC
CC
CC
CC
CC
CC
CC
CC
CC
CC
CC
CC
ENDCHAR
STARTCHAR backslash2
ENCODING 116
SWIDTH 500 0
DWIDTH 16 0
BBX 11 22 2 -9
BITMAP
C000
C000
E000
E000
7000
7000
3800
3800
1C00
1C00
0E00
0E00
0700
0700
0380
0380
01C0
01C0
00E0
00E0
0060
0060
ENDCHAR
STARTCHAR backslash3
ENCODING 117
SWIDTH 500 0
DWIDTH 14 0
BBX 10 14 2 -5
BITMAP
C000
C000
C000
E000
7000
3800
1C00
0E00
0700
0380
01C0
00C0
00C0
00C0
ENDCHAR
STARTCHAR diagonaldots
ENCODING 118
SWIDTH 500 0
DWIDTH 18 0
BBX 14 20 2 -7
BITMAP
C000
C000
C000
C000
0000
0000
0000
0000
0300
0300
0300
0300
0000
0000
0000
0000
000C
000C
000C
000C
ENDCHAR
STARTCHAR simequal
ENCODING 119
SWIDTH 1098 0
DWIDTH 16 0
BBX 12 12 2 -5
BITMAP
3830
7C30
EE30
C770
C3E0
C1C0
0000
0000
0000
0000
FFF0
FFF0
ENDCHAR
STARTCHAR florin
ENCODING 120
SWIDTH 1000 0
DWIDTH 16 0
BBX 14 18 2 -9
BITMAP
07FC
07FC
0F00
0F00
0E00
1E00
1C00
1C00
3FC0
3FC0
3800
7800
7000
7000
E000
E000
E000
E000
ENDCHAR
STARTCHAR asym
ENCODING 121
SWIDTH 500 0
DWIDTH 20 0
BBX 16 14 2 -5
BITMAP
C003
E007
700E
381C
1FF8
0FF0
0000
0000
0FF0
1FF8
381C
700E
E007
C003
ENDCHAR
STARTCHAR minusplus
ENCODING 122
SWIDTH 500 0
DWIDTH 14 0
BBX 10 14 2 -5
BITMAP
FFC0
FFC0
0000
0000
0C00
0C00
0C00
0C00
FFC0
FFC0
0C00
0C00
0C00
0C00
ENDCHAR
STARTCHAR less2
ENCODING 123
SWIDTH 1098 0
DWIDTH 14 0
BBX 12 10 0 -3
BITMAP
00F0
03C0
0F00
3C00
F000
F000
3C00
0F00
03C0
00F0
ENDCHAR
STARTCHAR bowtie
ENCODING 124
SWIDTH 500 0
DWIDTH 18 0
BBX 14 10 2 -1
BITMAP
F03C
F87C
DCEC
CECC
C38C
C70C
CDCC
DCEC
F87C
F03C
ENDCHAR
STARTCHAR greater2
ENCODING 125
SWIDTH 1098 0
DWIDTH 14 0
BBX 12 10 0 -3
BITMAP
F000
3C00
0F00
03C0
00F0
00F0
03C0
0F00
3C00
F000
ENDCHAR
STARTCHAR centraldots
ENCODING 126
SWIDTH 2000 0
DWIDTH 22 0
BBX 18 4 2 1
BITMAP
C0C0C0
C0C0C0
C0C0C0
C0C0C0
ENDCHAR
STARTCHAR visiblespace
ENCODING 160
SWIDTH 500 0
DWIDTH 14 0
BBX 10 4 2 -7
BITMAP
C0C0
C0C0
FFC0
FFC0
ENDCHAR
STARTCHAR dagger1
ENCODING 161
SWIDTH 500 0
DWIDTH 14 0
BBX 10 16 2 -5
BITMAP
0C00
0C00
0C00
0C00
FFC0
FFC0
0C00
0C00
0C00
0C00
3F00
3F00
0C00
0C00
0C00
0C00
ENDCHAR
STARTCHAR circledot
ENCODING 162
SWIDTH 1536 0
DWIDTH 18 0
BBX 14 14 2 -5
BITMAP
0FC0
1FE0
3870
7038
E01C
C00C
C30C
C30C
C00C
E01C
7038
3870
1FE0
0FC0
ENDCHAR
STARTCHAR propersqsuperset
ENCODING 163
SWIDTH 1426 0
DWIDTH 18 0
BBX 14 12 2 -3
BITMAP
FFFC
FFFC
000C
000C
000C
000C
000C
000C
000C
000C
FFFC
FFFC
ENDCHAR
STARTCHAR reflexsqsuperset
ENCODING 164
SWIDTH 1426 0
DWIDTH 18 0
BBX 14 16 2 -5
BITMAP
FFFC
FFFC
000C
000C
000C
000C
000C
000C
000C
000C
FFFC
FFFC
0000
0000
FFFC
FFFC
ENDCHAR
STARTCHAR gradient1
ENCODING 165
SWIDTH 1426 0
DWIDTH 16 0
BBX 12 12 2 -3
BITMAP
FFF0
FFF0
C030
C030
C030
C030
6060
6060
30C0
39C0
1F80
0F00
ENDCHAR
STARTCHAR propersqsubset
ENCODING 166
SWIDTH 1426 0
DWIDTH 18 0
BBX 14 12 2 -3
BITMAP
FFFC
FFFC
C000
C000
C000
C000
C000
C000
C000
C000
FFFC
FFFC
ENDCHAR
STARTCHAR reflexsqsubset
ENCODING 167
SWIDTH 1426 0
DWIDTH 18 0
BBX 14 16 2 -5
BITMAP
FFFC
FFFC
C000
C000
C000
C000
C000
C000
C000
C000
FFFC
FFFC
0000
0000
FFFC
FFFC
ENDCHAR
STARTCHAR smalllozenge
ENCODING 168
SWIDTH 988 0
DWIDTH 18 0
BBX 14 14 2 -3
BITMAP
0300
0780
0CC0
1860
3030
6018
C00C
C00C
6018
3030
1860
0CC0
0780
0300
ENDCHAR
STARTCHAR lessless
ENCODING 169
SWIDTH 1098 0
DWIDTH 24 0
BBX 21 14 1 -5
BITMAP
001818
007878
01E1E0
078780
1E1E00
383800
E0E000
E0E000
383800
1E1E00
078780
01E1E0
007878
001818
ENDCHAR
STARTCHAR greatergreater
ENCODING 170
SWIDTH 1098 0
DWIDTH 24 0
BBX 21 14 2 -5
BITMAP
C0C000
F0F000
3C3C00
0F0F00
03C3C0
00E0E0
003838
003838
00E0E0
03C3C0
0F0F00
3C3C00
F0F000
C0C000
ENDCHAR
STARTCHAR unionplus
ENCODING 171
SWIDTH 1536 0
DWIDTH 18 0
BBX 14 12 2 -3
BITMAP
C00C
C00C
C30C
C30C
CFCC
CFCC
C30C
E31C
7038
3870
1FE0
0FC0
ENDCHAR
STARTCHAR sqintersection
ENCODING 172
SWIDTH 1536 0
DWIDTH 18 0
BBX 14 12 2 -3
BITMAP
FFFC
FFFC
C00C
C00C
C00C
C00C
C00C
C00C
C00C
C00C
C00C
C00C
ENDCHAR
STARTCHAR squnion
ENCODING 173
SWIDTH 1536 0
DWIDTH 18 0
BBX 14 12 2 -3
BITMAP
C00C
C00C
C00C
C00C
C00C
C00C
C00C
C00C
C00C
C00C
FFFC
FFFC
ENDCHAR
STARTCHAR frown
ENCODING 174
SWIDTH 500 0
DWIDTH 20 0
BBX 16 6 2 -1
BITMAP
0FF0
1FF8
381C
700E
E007
C003
ENDCHAR
STARTCHAR smile
ENCODING 175
SWIDTH 500 0
DWIDTH 20 0
BBX 16 6 2 -1
BITMAP
C003
E007
700E
381C
1FF8
0FF0
ENDCHAR
STARTCHAR reflexprec
ENCODING 176
SWIDTH 1098 0
DWIDTH 16 0
BBX 12 18 2 -7
BITMAP
0030
0030
0030
0060
03C0
0F00
FC00
FC00
0F00
03C0
0060
0030
0030
0030
0000
0000
FFF0
FFF0
ENDCHAR
STARTCHAR reflexsucc
ENCODING 177
SWIDTH 1098 0
DWIDTH 16 0
BBX 12 18 2 -7
BITMAP
C000
C000
C000
6000
3C00
0F00
03F0
03F0
0F00
3800
6000
C000
C000
C000
0000
0000
FFF0
FFF0
ENDCHAR
STARTCHAR properprec
ENCODING 178
SWIDTH 1098 0
DWIDTH 16 0
BBX 12 14 2 -5
BITMAP
0030
0030
0030
0060
03C0
0F00
FC00
FC00
0F00
03C0
0060
0030
0030
0030
ENDCHAR
STARTCHAR propersucc
ENCODING 179
SWIDTH 1098 0
DWIDTH 16 0
BBX 12 14 2 -5
BITMAP
C000
C000
C000
6000
3C00
0F00
03F0
03F0
0F00
3C00
6000
C000
C000
C000
ENDCHAR
STARTCHAR bardash
ENCODING 180
SWIDTH 988 0
DWIDTH 16 0
BBX 12 14 2 -5
BITMAP
C000
C000
C000
C000
C000
C000
FFF0
FFF0
C000
C000
C000
C000
C000
C000
ENDCHAR
STARTCHAR dashbar
ENCODING 181
SWIDTH 988 0
DWIDTH 16 0
BBX 12 14 2 -5
BITMAP
0030
0030
0030
0030
0030
0030
FFF0
FFF0
0030
0030
0030
0030
0030
0030
ENDCHAR
STARTCHAR bardashdbl
ENCODING 182
SWIDTH 988 0
DWIDTH 16 0
BBX 12 14 2 -5
BITMAP
C000
C000
C000
C000
FFF0
FFF0
C000
C000
FFF0
FFF0
C000
C000
C000
C000
ENDCHAR
STARTCHAR smallintegral
ENCODING 183
SWIDTH 548 0
DWIDTH 14 0
BBX 10 18 2 -5
BITMAP
0380
07C0
0EC0
0CC0
0C00
0C00
0C00
0C00
0C00
0C00
0C00
0C00
0C00
0C00
CC00
DC00
F800
7000
ENDCHAR
STARTCHAR circleintegral
ENCODING 184
SWIDTH 548 0
DWIDTH 16 0
BBX 12 22 2 -9
BITMAP
03F0
07F0
0F30
0F30
0F00
0F00
3FC0
7FE0
CF30
CF30
CF30
CF30
CF30
CF30
7FE0
3FC0
0F00
0F00
CF00
CF00
FE00
FC00
ENDCHAR
STARTCHAR coproduct
ENCODING 185
SWIDTH 1646 0
DWIDTH 22 0
BBX 18 22 2 -9
BITMAP
FC0FC0
FC0FC0
3C0F00
3C0F00
3C0F00
3C0F00
3C0F00
3C0F00
3C0F00
3C0F00
3C0F00
3C0F00
3C0F00
3C0F00
3C0F00
3C0F00
3C0F00
3C0F00
3C0F00
3C0F00
FFFFC0
FFFFC0
ENDCHAR
STARTCHAR bigcircledot
ENCODING 186
SWIDTH 1536 0
DWIDTH 22 0
BBX 18 18 2 -7
BITMAP
0FFC00
1FFE00
3FFF00
7FFF80
FC0FC0
F807C0
F003C0
F003C0
F0C3C0
F0C3C0
F003C0
F003C0
F807C0
FC0FC0
7FFF80
3FFF00
1FFE00
0FFC00
ENDCHAR
STARTCHAR bigcirclemultiply
ENCODING 187
SWIDTH 1536 0
DWIDTH 22 0
BBX 18 18 2 -7
BITMAP
0FFC00
1FFE00
3FFF00
7FFF80
FC0FC0
FE1FC0
F73BC0
F3F3C0
F1E3C0
F1E3C0
F3F3C0
F73BC0
FE1FC0
FC0FC0
7FFF80
3FFF00
1FFE00
0FFC00
ENDCHAR
STARTCHAR bigcircleplus
ENCODING 188
SWIDTH 1536 0
DWIDTH 22 0
BBX 18 18 2 -7
BITMAP
0FFC00
1FFE00
3FFF00
7FFF80
FCCFC0
F8C7C0
F0C3C0
F0C3C0
FFFFC0
FFFFC0
F0C3C0
F0C3C0
F8C7C0
FCCFC0
7FFF80
3FFF00
1FFE00
0FFC00
ENDCHAR
STARTCHAR biglogicaland
ENCODING 189
SWIDTH 1206 0
DWIDTH 22 0
BBX 18 22 2 -9
BITMAP
01E000
01E000
03F000
03F000
073800
073800
073800
0E1C00
0E1C00
0E1C00
1C0E00
1C0E00
1C0E00
380700
380700
380700
700380
700380
700380
E001C0
E001C0
E001C0
ENDCHAR
STARTCHAR biglogicalor
ENCODING 190
SWIDTH 1206 0
DWIDTH 22 0
BBX 18 22 2 -9
BITMAP
E001C0
E001C0
E001C0
700380
700380
700380
380700
380700
380700
1C0E00
1C0E00
1C0E00
0E1C00
0E1C00
0E1C00
073800
073800
073800
03F000
03F000
01E000
01E000
ENDCHAR
STARTCHAR bigintersection
ENCODING 191
SWIDTH 1206 0
DWIDTH 22 0
BBX 18 22 2 -9
BITMAP
0FFC00
1FFE00
3C0F00
780780
F003C0
F003C0
F003C0
F003C0
F003C0
F003C0
F003C0
F003C0
F003C0
F003C0
F003C0
F003C0
F003C0
F003C0
F003C0
F003C0
F003C0
F003C0
ENDCHAR
STARTCHAR bigunion
ENCODING 192
SWIDTH 1206 0
DWIDTH 22 0
BBX 18 22 2 -9
BITMAP
F003C0
F003C0
F003C0
F003C0
F003C0
F003C0
F003C0
F003C0
F003C0
F003C0
F003C0
F003C0
F003C0
F003C0
F003C0
F003C0
F003C0
F003C0
780780
3C0F00
1FFE00
0FFC00
ENDCHAR
STARTCHAR bigunionplus
ENCODING 193
SWIDTH 1206 0
DWIDTH 22 0
BBX 18 22 2 -9
BITMAP
E001C0
E001C0
E001C0
E001C0
E001C0
E001C0
E001C0
E0C1C0
E0C1C0
E0C1C0
E7F9C0
E7F9C0
E0C1C0
E0C1C0
E0C1C0
E001C0
E001C0
F003C0
780780
3C0F00
1FFE00
0FFC00
ENDCHAR
STARTCHAR bigsqunion
ENCODING 194
SWIDTH 1206 0
DWIDTH 22 0
BBX 18 22 2 -9
BITMAP
F003C0
F003C0
F003C0
F003C0
F003C0
F003C0
F003C0
F003C0
F003C0
F003C0
F003C0
F003C0
F003C0
F003C0
F003C0
F003C0
F003C0
F003C0
F003C0
F003C0
FFFFC0
FFFFC0
ENDCHAR
STARTCHAR bigcircle
ENCODING 195
SWIDTH 1536 0
DWIDTH 22 0
BBX 18 18 2 -5
BITMAP
0FFC00
1FFE00
3C0F00
780780
F003C0
E001C0
C000C0
C000C0
C000C0
C000C0
C000C0
C000C0
E001C0
F003C0
780780
3C0F00
1FFE00
0FFC00
ENDCHAR
STARTCHAR guilsinglleft
ENCODING 196
SWIDTH 500 0
DWIDTH 10 0
BBX 6 10 2 -3
BITMAP
0C
18
30
60
C0
C0
60
30
18
0C
ENDCHAR
STARTCHAR circleminus
ENCODING 197
SWIDTH 1536 0
DWIDTH 18 0
BBX 14 14 2 -5
BITMAP
0FC0
1FE0
3870
7038
E01C
C00C
FFFC
FFFC
C00C
E01C
7038
3870
1FE0
0FC0
ENDCHAR
STARTCHAR smalltriangleleft
ENCODING 198
SWIDTH 1426 0
DWIDTH 16 0
BBX 12 12 2 -3
BITMAP
03F0
0FF0
3C30
7030
C030
C030
C030
C030
7030
3C30
0FF0
03F0
ENDCHAR
STARTCHAR perthousand
ENCODING 199
SWIDTH 2000 0
DWIDTH 28 0
BBX 26 16 0 -5
BITMAP
3C0C0000
7E0C0000
E7180000
C3180000
C3300000
E7300000
7EE00000
3CE00000
00CF0F00
00DF9F80
0339D9C0
0330F0C0
0630F0C0
0639B9C0
0C1F9F80
0C0F0F00
ENDCHAR
STARTCHAR existential1
ENCODING 200
SWIDTH 1098 0
DWIDTH 14 0
BBX 10 18 2 -5
BITMAP
FFC0
FFC0
00C0
00C0
00C0
00C0
00C0
00C0
FFC0
FFC0
00C0
00C0
00C0
00C0
00C0
00C0
FFC0
FFC0
ENDCHAR
STARTCHAR daggerdbl1
ENCODING 201
SWIDTH 500 0
DWIDTH 14 0
BBX 10 16 2 -5
BITMAP
0C00
0C00
FFC0
FFC0
0C00
0C00
3F00
3F00
3F00
3F00
0C00
0C00
FFC0
FFC0
0C00
0C00
ENDCHAR
STARTCHAR daggerdbl
ENCODING 202
SWIDTH 500 0
DWIDTH 14 0
BBX 10 22 2 -9
BITMAP
0C00
0C00
CCC0
CCC0
FFC0
FFC0
0C00
0C00
3F00
3F00
0C00
0C00
3F00
3F00
0C00
0C00
FFC0
FFC0
CCC0
CCC0
0C00
0C00
ENDCHAR
STARTCHAR bigbowtie
ENCODING 203
SWIDTH 500 0
DWIDTH 22 0
BBX 18 14 2 -3
BITMAP
F003C0
F807C0
DC0EC0
CE1CC0
C738C0
C3F0C0
C1E0C0
C1E0C0
C3F0C0
C738C0
CE1CC0
DC0EC0
F807C0
F003C0
ENDCHAR
STARTCHAR circ
ENCODING 204
SWIDTH 920 0
DWIDTH 12 0
BBX 8 8 2 -1
BITMAP
3C
7E
E7
C3
C3
E7
7E
3C
ENDCHAR
STARTCHAR grave
ENCODING 205
SWIDTH 666 0
DWIDTH 8 0
BBX 4 4 2 9
BITMAP
C0
E0
70
30
ENDCHAR
STARTCHAR circumflex
ENCODING 206
SWIDTH 666 0
DWIDTH 10 0
BBX 6 4 2 9
BITMAP
30
78
CC
84
ENDCHAR
STARTCHAR tilde
ENCODING 207
SWIDTH 666 0
DWIDTH 14 0
BBX 10 4 2 9
BITMAP
38C0
7DC0
EF80
C700
ENDCHAR
STARTCHAR longarrowboth
ENCODING 208
SWIDTH 1974 0
DWIDTH 38 0
BBX 34 10 2 -3
BITMAP
0C00000C00
1C00000E00
3800000700
7000000380
FFFFFFFFC0
FFFFFFFFC0
7000000380
3800000700
1C00000E00
0C00000C00
ENDCHAR
STARTCHAR endash
ENCODING 209
SWIDTH 1112 0
DWIDTH 16 0
BBX 16 2 0 1
BITMAP
FFFF
FFFF
ENDCHAR
STARTCHAR emdash
ENCODING 210
SWIDTH 2000 0
DWIDTH 28 0
BBX 28 2 0 1
BITMAP
FFFFFFF0
FFFFFFF0
ENDCHAR
STARTCHAR Ydiaeresis
ENCODING 211
SWIDTH 1334 0
DWIDTH 18 0
BBX 14 22 2 -5
BITMAP
0CC0
0CC0
0000
0000
C00C
C00C
C00C
C00C
6018
6018
3030
3030
1860
0CC0
0780
0300
0300
0300
0300
0300
0300
0300
ENDCHAR
STARTCHAR ampersand2
ENCODING 212
SWIDTH 1556 0
DWIDTH 20 0
BBX 18 18 2 -5
BITMAP
0F0000
1F8000
39C000
30C000
30C000
39C000
1FBF00
0F3F00
3F0C00
7F8C00
E7CC00
C3DC00
C1F800
C0F000
C0F0C0
E1F980
7F9F80
3F0F00
ENDCHAR
STARTCHAR universal1
ENCODING 213
SWIDTH 1426 0
DWIDTH 18 0
BBX 18 18 0 -5
BITMAP
C000C0
C000C0
600180
600180
300300
300300
1FFE00
1FFE00
0C0C00
0C0C00
061800
061800
033000
033000
01E000
01E000
00C000
00C000
ENDCHAR
STARTCHAR booleans
ENCODING 214
SWIDTH 1334 0
DWIDTH 22 0
BBX 18 18 2 -5
BITMAP
FFFF00
FFFF80
330FC0
330DC0
330CC0
330CC0
330FC0
330F80
33FF00
33FF80
330CC0
330CC0
330CC0
330CC0
330DC0
330FC0
FFFF80
FFFF00
ENDCHAR
STARTCHAR complexnums
ENCODING 215
SWIDTH 1444 0
DWIDTH 18 0
BBX 14 18 2 -5
BITMAP
0FCC
1FEC
3C7C
7C3C
CC1C
CC0C
CC00
CC00
CC00
CC00
CC00
CC00
CC00
CC00
7C0C
3C0C
1FFC
0FFC
ENDCHAR
STARTCHAR natnums
ENCODING 216
SWIDTH 1444 0
DWIDTH 20 0
BBX 16 18 2 -5
BITMAP
F83F
FC3F
3E0C
3F0C
378C
33CC
39EC
3CFC
3E7C
3F3C
379C
33CC
31FC
30FC
307C
303C
FC1C
FC0C
ENDCHAR
STARTCHAR rationalnums
ENCODING 217
SWIDTH 1444 0
DWIDTH 20 0
BBX 16 20 2 -7
BITMAP
0FF0
1FF8
3C3C
6C36
CC33
CC33
CC33
CC33
CC33
CC33
CC33
CC33
CC33
CC33
6C36
3C3C
1FF8
0FF0
01FF
00FF
ENDCHAR
STARTCHAR realnums
ENCODING 218
SWIDTH 1334 0
DWIDTH 22 0
BBX 18 18 2 -5
BITMAP
FFFF00
FFFF80
330FC0
330DC0
330CC0
330CC0
330DC0
330FC0
33FF80
33FF00
338C00
33C600
336300
333300
3333C0
3333C0
FF1FC0
FF0FC0
ENDCHAR
STARTCHAR integers
ENCODING 219
SWIDTH 1222 0
DWIDTH 18 0
BBX 14 18 2 -5
BITMAP
FFFC
FFFC
C338
C338
0670
0670
0CE0
0CE0
19C0
19C0
3380
3380
670C
671C
CE34
CE64
FFCC
FFFC
ENDCHAR
STARTCHAR lesssim
ENCODING 220
SWIDTH 1098 0
DWIDTH 16 0
BBX 12 16 2 -5
BITMAP
00F0
03C0
0F00
3C00
F000
F000
3C00
0F00
03C0
00F0
0000
0000
3C30
7E70
E7E0
C3C0
ENDCHAR
STARTCHAR greatersim
ENCODING 221
SWIDTH 1098 0
DWIDTH 16 0
BBX 12 16 2 -5
BITMAP
F000
3C00
0F00
03C0
00F0
00F0
03C0
0F00
3C00
F000
0000
0000
3C30
7E70
E7E0
C3C0
ENDCHAR
STARTCHAR lessapprox
ENCODING 222
SWIDTH 1098 0
DWIDTH 16 0
BBX 12 22 2 -9
BITMAP
00F0
03C0
0F00
3C00
F000
F000
3C00
0F00
03C0
00F0
0000
0000
3C30
7E70
E7E0
C3C0
0000
0000
3C30
7E70
E7E0
C3C0
ENDCHAR
STARTCHAR greaterapprox
ENCODING 223
SWIDTH 1098 0
DWIDTH 16 0
BBX 12 22 2 -9
BITMAP
F000
3C00
0F00
03C0
00F0
00F0
03C0
0F00
3C00
F000
0000
0000
3C30
7E70
E7E0
C3C0
0000
0000
3C30
7E70
E7E0
C3C0
ENDCHAR
STARTCHAR definedas
ENCODING 224
SWIDTH 1098 0
DWIDTH 14 0
BBX 10 14 2 -3
BITMAP
0C00
1E00
3300
6180
FFC0
FFC0
0000
0000
FFC0
FFC0
0000
0000
FFC0
FFC0
ENDCHAR
STARTCHAR circleminus1
ENCODING 225
SWIDTH 1536 0
DWIDTH 18 0
BBX 14 14 2 -5
BITMAP
0FC0
1FE0
3870
7038
E01C
C00C
CFCC
CFCC
C00C
E01C
7038
3870
1FE0
0FC0
ENDCHAR
STARTCHAR circleasterisk
ENCODING 226
SWIDTH 1536 0
DWIDTH 18 0
BBX 14 14 2 -5
BITMAP
0FC0
1FE0
3330
7B78
DFEC
CFCC
C78C
CFCC
DFEC
FB7C
7338
3B70
1FE0
0FC0
ENDCHAR
STARTCHAR circlecirc
ENCODING 227
SWIDTH 1536 0
DWIDTH 18 0
BBX 14 14 2 -5
BITMAP
0FC0
1FE0
3870
7038
E79C
CFCC
CCCC
CCCC
CFCC
E79C
7038
3870
1FE0
0FC0
ENDCHAR
STARTCHAR dollar1
ENCODING 228
SWIDTH 1112 0
DWIDTH 16 0
BBX 14 22 0 -7
BITMAP
0CC0
0CC0
3FF0
7FF8
ECDC
CCCC
CCC0
CCC0
CCC0
ECC0
7FF0
3FF8
0CDC
0CCC
0CCC
0CCC
CCCC
ECDC
7FF8
3FF0
0CC0
0CC0
ENDCHAR
STARTCHAR euro
ENCODING 229
SWIDTH 1444 0
DWIDTH 20 0
BBX 16 18 2 -7
BITMAP
03FC
07FE
0E07
1C03
3800
3000
FFFC
FFFC
3000
3000
FFF0
FFF0
3000
3800
1C03
0E07
07FE
03FC
ENDCHAR
STARTCHAR therefore1
ENCODING 230
SWIDTH 1726 0
DWIDTH 18 0
BBX 14 12 2 -5
BITMAP
0300
0300
0300
0300
0000
0000
0000
0000
C00C
C00C
C00C
C00C
ENDCHAR
STARTCHAR coloncolon
ENCODING 231
SWIDTH 1726 0
DWIDTH 12 0
BBX 8 12 2 -5
BITMAP
C3
C3
C3
C3
00
00
00
00
C3
C3
C3
C3
ENDCHAR
STARTCHAR bigsqintersection
ENCODING 232
SWIDTH 1206 0
DWIDTH 22 0
BBX 18 22 2 -9
BITMAP
FFFFC0
FFFFC0
F003C0
F003C0
F003C0
F003C0
F003C0
F003C0
F003C0
F003C0
F003C0
F003C0
F003C0
F003C0
F003C0
F003C0
F003C0
F003C0
F003C0
F003C0
F003C0
F003C0
ENDCHAR
STARTCHAR semanticsleft
ENCODING 233
SWIDTH 1726 0
DWIDTH 12 0
BBX 10 22 2 -9
BITMAP
FFC0
FFC0
CC00
CC00
CC00
CC00
CC00
CC00
CC00
CC00
CC00
CC00
CC00
CC00
CC00
CC00
CC00
CC00
CC00
CC00
FFC0
FFC0
ENDCHAR
STARTCHAR semanticsright
ENCODING 234
SWIDTH 1726 0
DWIDTH 12 0
BBX 10 22 0 -9
BITMAP
FFC0
FFC0
0CC0
0CC0
0CC0
0CC0
0CC0
0CC0
0CC0
0CC0
0CC0
0CC0
0CC0
0CC0
0CC0
0CC0
0CC0
0CC0
0CC0
0CC0
FFC0
FFC0
ENDCHAR
STARTCHAR cataleft
ENCODING 235
SWIDTH 2000 0
DWIDTH 12 0
BBX 8 22 2 -9
BITMAP
0F
1F
3B
33
63
63
C3
C3
C3
C3
C3
C3
C3
C3
C3
C3
63
63
33
3B
1F
0F
ENDCHAR
STARTCHAR cataright
ENCODING 236
SWIDTH 2000 0
DWIDTH 12 0
BBX 8 22 2 -9
BITMAP
F0
F8
DC
CC
C6
C7
C3
C3
C3
C3
C3
C3
C3
C3
C3
C3
C6
C6
CC
DC
F8
F0
ENDCHAR
ENDFONT
